PathFileType        4      (X/Y/Z)      C:\Users\pc\Desktop\IMUTRC\Sujet_05\Sujet_05_Tpose.trc         
DataRate	CameraRate	NumFrames	NumMarkers	Units	OrigDataRate	OrigDataStartFrame	OrigNumFrames
60.0	60.0	4	64	mm	60.0	30	116
Frame#	Time	pHipOrigin			pRightASI			pLeftASI			pRightCSI			pLeftCSI			pRightIschialTub			pLeftIschialTub			pSacrum			pL5SpinalProcess			pL3SpinalProcess			pT12SpinalProcess			pIJ			pT4SpinalProcess			pT8SpinalProcess			pPX			pC7SpinalProcess			pTopOfHead			pRightAuricularis			pLeftAuricularis			pBackOfHead			pRightAcromion			pLeftAcromion			pRightArmLatEpicondyle			pRightArmMedEpicondyle			pLeftArmLatEpicondyle			pLeftArmMedEpicondyle			pRightUlnarStyloid			pRightRadialStyloid			pRightOlecranon			pLeftUlnarStyloid			pLeftRadialStyloid			pLeftOlecranon			pRightTopOfHand			pRightPinky			pRightBallHand			pLeftTopOfHand			pLeftPinky			pLeftBallHand			pRightGreaterTrochanter			pRightKneeLatEpicondyle			pRightKneeMedEpicondyle			pRightPatella			pLeftGreaterTrochanter			pLeftKneeLatEpicondyle			pLeftKneeMedEpicondyle			pLeftPatella			pRightTibialTub			pRightLatMalleolus			pRightMedMalleolus			pLeftTibialTub			pLeftLatMalleolus			pLeftMedMalleolus			pRightHeelFoot			pRightFirstMetatarsal			pRightFifthMetatarsal			pRightPivotFoot			pRightHeelCenter			pRightToe			pLeftHeelFoot			pLeftFirstMetatarsal			pLeftFifthMetatarsal			pLeftPivotFoot			pLeftHeelCenter			pLeftToe			
		X1	Y1	Z1	X2	Y2	Z2	X3	Y3	Z3	X4	Y4	Z4	X5	Y5	Z5	X6	Y6	Z6	X7	Y7	Z7	X8	Y8	Z8	X9	Y9	Z9	X10	Y10	Z10	X11	Y11	Z11	X12	Y12	Z12	X13	Y13	Z13	X14	Y14	Z14	X15	Y15	Z15	X16	Y16	Z16	X17	Y17	Z17	X18	Y18	Z18	X19	Y19	Z19	X20	Y20	Z20	X21	Y21	Z21	X22	Y22	Z22	X23	Y23	Z23	X24	Y24	Z24	X25	Y25	Z25	X26	Y26	Z26	X27	Y27	Z27	X28	Y28	Z28	X29	Y29	Z29	X30	Y30	Z30	X31	Y31	Z31	X32	Y32	Z32	X33	Y33	Z33	X34	Y34	Z34	X35	Y35	Z35	X36	Y36	Z36	X37	Y37	Z37	X38	Y38	Z38	X39	Y39	Z39	X40	Y40	Z40	X41	Y41	Z41	X42	Y42	Z42	X43	Y43	Z43	X44	Y44	Z44	X45	Y45	Z45	X46	Y46	Z46	X47	Y47	Z47	X48	Y48	Z48	X49	Y49	Z49	X50	Y50	Z50	X51	Y51	Z51	X52	Y52	Z52	X53	Y53	Z53	X54	Y54	Z54	X55	Y55	Z55	X56	Y56	Z56	X57	Y57	Z57	X58	Y58	Z58	X59	Y59	Z59	X60	Y60	Z60	X61	Y61	Z61	X62	Y62	Z62	X63	Y63	Z63	X64	Y64	Z64	
30	0.483	267.63666	879.0728	285.07711000000006	341.10919	971.3773	404.00613000000004	318.56648	971.74838	155.10867000000005	297.87914	1033.8104	386.9367500000001	279.13994	1034.0887	179.87781000000007	220.41758	826.10208	341.38750000000005	211.14074	826.19485	237.85803000000007	205.48188	898.92523	290.64321000000007	237.11588	986.68408	288.23124000000007	245.92887	1100.97467	288.60231000000005	242.12537	1205.33906	290.45768000000004	391.29686	1427.79754	278.8616300000001	239.15678	1401.91517	294.44672000000014	236.00266	1309.79621	292.96242000000007	392.22455	1301.9109	276.26412000000005	243.14582	1458.78217	300.7549600000001	319.03033	1727.90313	284.52050000000014	354.65337	1617.97264	341.57303000000013	268.56435	1626.32179	223.3861700000001	265.22469	1624.74473	316.43281000000013	284.89158	1425.94217	491.0228300000001	228.30289	1433.45641	96.38631000000008	321.25677	1337.0701	720.5317100000001	376.08286	1327.32943	706.8019900000002	154.36652	1354.04671	-126.16493999999992	208.45046	1338.27609	-137.11160999999993	448.906	1261.00006	920.6330200000001	435.7329	1305.62164	938.6300800000001	351.0354	1311.55881	699.5660600000001	199.45193	1282.98616	-363.0952899999999	178.76459	1327.23666	-373.48533999999995	189.89679	1325.75237	-120.04222999999992	486.66272	1246.06436	1099.76869	487.40487	1230.01544	1014.9784200000001	468.66566	1265.73125	954.6790000000001	184.8873	1292.8196	-547.5187499999998	208.26493	1265.08187	-469.2222699999999	207.33724	1291.70638	-401.77968999999996	271.99678	847.06772	433.97030000000007	253.81418	486.56995	409.01562000000007	257.52492	485.73504	338.69721000000004	295.18886	486.75549	373.57811000000004	251.95881	848.36648	136.09116000000006	228.21012	487.86871	157.33511000000001	236.65204	485.92057	227.28244000000004	271.90401	486.75549	189.89679000000004	306.69214	451.87459	375.0624	225.61261	85.16133999999997	407.53132	228.95227	84.04811999999998	347.97405	283.59282	452.98781	187.20651000000004	204.36866	85.90347999999999	155.47974	211.69735	84.04811999999998	214.66594	189.24742	-0.18554000000002288	373.48534	354.09676	2.597509999999979	350.84987	346.67529	1.9481399999999738	428.86804	372.65043	2.504749999999976	390.92579	228.11735	3.1541199999999767	377.19608	452.98781	3.3396599999999754	398.53279	169.6733	0.1855399999999885	187.94866	333.87326	2.597509999999987	215.12978	328.58546	2.3192099999999916	136.92607	353.54015	2.5975099999999895	175.61047	208.636	3.4324299999999885	185.35115	434.06307	3.43242999999999	170.13714	
31	0.5	267.63666	879.0728	285.07711000000006	340.92365	971.3773	404.09889000000004	318.75202	971.65561	155.20143000000004	297.78638	1033.8104	386.9367500000001	279.32548	1034.0887	179.87781000000007	220.32481	826.10208	341.48026000000004	211.14074	826.19485	237.85803000000007	205.48188	898.92523	290.64321000000007	237.11588	986.68408	288.23124000000007	245.92887	1100.97467	288.60231000000005	242.12537	1205.43183	290.45768000000004	391.38963	1427.70477	278.8616300000001	239.24955	1401.91517	294.44672000000014	236.09543	1309.79621	292.96242000000007	392.22455	1301.9109	276.26412000000005	243.23859	1458.78217	300.7549600000001	319.21586	1727.90313	284.52050000000014	354.74614	1617.97264	341.4802600000001	268.74988	1626.32179	223.3861700000001	265.41022	1624.74473	316.3400400000001	284.98434	1426.03494	491.0228300000001	228.39566	1433.36364	96.29354000000008	321.25677	1336.97733	720.5317100000001	376.08286	1327.14389	706.8019900000002	154.45929	1353.95394	-126.16493999999992	208.45046	1338.27609	-137.11160999999993	448.906	1260.72176	920.6330200000001	435.7329	1305.34333	938.6300800000001	351.0354	1311.46604	699.4732900000001	199.5447	1282.89339	-363.0952899999999	178.85736	1327.14389	-373.48533999999995	189.98956	1325.75237	-120.04222999999992	486.66272	1245.69329	1099.67592	487.40487	1229.64436	1014.8856500000002	468.66566	1265.36018	954.6790000000001	184.98007	1292.72684	-547.5187499999998	208.35769	1264.9891	-469.2222699999999	207.43001	1291.61362	-401.77968999999996	271.90401	847.06772	433.97030000000007	253.81418	486.56995	409.01562000000007	257.52492	485.73504	338.69721000000004	295.18886	486.75549	373.57811000000004	251.95881	848.36648	136.18393000000006	228.21012	487.86871	157.33511000000001	236.65204	485.92057	227.28244000000004	271.90401	486.75549	189.89679000000004	306.69214	451.87459	375.0624	225.61261	85.16133999999997	407.53132	228.95227	84.04811999999998	347.97405	283.59282	452.98781	187.29928000000004	204.36866	85.90347999999999	155.47974	211.69735	84.04811999999998	214.66594	189.24742	-0.18554000000002288	373.48534	354.09676	2.597509999999979	350.84987	346.67529	1.9481399999999738	428.86804	372.65043	2.504749999999976	390.92579	228.11735	3.1541199999999767	377.19608	452.98781	3.4324299999999757	398.53279	169.6733	0.1855399999999885	187.94866	333.87326	2.597509999999987	215.12978	328.58546	2.2264399999999918	136.92607	353.54015	2.5975099999999895	175.61047	208.636	3.4324299999999885	185.35115	434.06307	3.43242999999999	170.13714	
32	0.517	267.63666	879.0728	285.16988000000003	340.83089	971.3773	404.19166000000007	318.93756	971.65561	155.29420000000005	297.69361	1033.90316	387.02952000000005	279.41824	1034.0887	179.87781000000007	220.32481	826.10208	341.48026000000004	211.23351	826.19485	237.85803000000007	205.48188	898.92523	290.64321000000007	237.11588	986.68408	288.23124000000007	246.02164	1100.97467	288.5095400000001	242.21814	1205.43183	290.45768000000004	391.4824	1427.70477	278.8616300000001	239.34232	1401.91517	294.3539500000001	236.1882	1309.79621	292.96242000000007	392.31732	1301.9109	276.26412000000005	243.33136	1458.78217	300.7549600000001	319.4014	1727.90313	284.4277300000001	354.93167	1617.97264	341.4802600000001	268.84265	1626.32179	223.2934000000001	265.50299	1624.74473	316.3400400000001	284.98434	1426.03494	491.0228300000001	228.48842	1433.36364	96.29354000000008	321.25677	1336.7918	720.4389400000001	376.08286	1327.05112	706.8019900000002	154.55206	1353.95394	-126.25770999999992	208.54323	1338.18332	-137.11160999999993	448.906	1260.44345	920.5402500000001	435.7329	1305.06503	938.5373100000002	351.12817	1311.2805	699.4732900000001	199.63747	1282.80062	-363.0952899999999	178.95013	1326.95835	-373.48533999999995	190.08233	1325.6596	-120.04222999999992	486.66272	1245.22945	1099.67592	487.3121	1229.27329	1014.7928900000002	468.66566	1265.08187	954.5862300000001	185.07284	1292.5413	-547.5187499999998	208.45046	1264.80357	-469.2222699999999	207.52278	1291.52085	-401.77968999999996	271.81124	847.16049	434.06307000000004	253.72141	486.56995	409.10839000000004	257.52492	485.73504	338.78998000000007	295.09609	486.75549	373.67088000000007	252.14435	848.27371	136.18393000000006	228.21012	487.86871	157.42788000000002	236.65204	485.92057	227.28244000000004	271.90401	486.66272	189.89679000000004	306.59937	451.87459	375.0624	225.61261	85.25410999999997	407.53132	228.95227	84.04811999999998	347.97405	283.59282	452.98781	187.29928000000004	204.36866	85.90347999999999	155.38697	211.69735	84.04811999999998	214.57317	189.24742	-0.18554000000002288	373.48534	354.09676	2.597509999999979	350.84987	346.67529	2.040899999999974	428.86804	372.65043	2.504749999999976	390.92579	228.11735	3.1541199999999767	377.19608	452.98781	3.4324299999999757	398.53279	169.6733	0.1855399999999885	187.94866	333.87326	2.597509999999987	215.12978	328.58546	2.2264399999999918	136.92607	353.54015	2.5975099999999895	175.61047	208.636	3.4324299999999885	185.35115	434.06307	3.3396599999999896	170.13714	
33	0.533	267.63666	879.0728	285.16988000000003	340.73812	971.47007	404.28443000000004	319.12309	971.56284	155.29420000000005	297.60084	1033.90316	386.9367500000001	279.60378	1033.99593	179.87781000000007	220.32481	826.10208	341.48026000000004	211.32628	826.19485	237.85803000000007	205.57464	898.92523	290.55044000000004	237.11588	986.77685	288.13847000000004	246.02164	1100.97467	288.5095400000001	242.21814	1205.43183	290.36491000000007	391.4824	1427.70477	278.8616300000001	239.43509	1401.91517	294.3539500000001	236.1882	1309.88898	292.86965000000004	392.41008	1301.9109	276.26412000000005	243.42413	1458.87494	300.6621900000001	319.58694	1727.90313	284.3349700000001	355.02444	1617.97264	341.3875000000001	269.02819	1626.32179	223.2006300000001	265.68853	1624.74473	316.2472800000001	285.07711	1426.03494	490.93006000000014	228.58119	1433.36364	96.29354000000008	321.34953	1336.69903	720.4389400000001	376.17562	1326.86559	706.7092200000001	154.55206	1353.86117	-126.25770999999992	208.636	1338.09055	-137.2043799999999	448.906	1260.16515	920.4474800000002	435.64013	1304.78672	938.5373100000002	351.12817	1311.18774	699.3805300000001	199.73024	1282.70786	-363.18805999999995	178.95013	1326.86559	-373.5781099999999	190.1751	1325.56683	-120.04222999999992	486.56995	1244.85837	1099.58315	487.3121	1228.99499	1014.7001200000001	468.66566	1264.80357	954.4934600000001	185.16561	1292.35576	-547.6115199999999	208.54323	1264.7108	-469.2222699999999	207.61555	1291.33531	-401.77968999999996	271.81124	847.16049	434.06307000000004	253.72141	486.56995	409.10839000000004	257.43215	485.8278	338.78998000000007	295.09609	486.84826	373.76365000000004	252.23712	848.27371	136.18393000000006	228.21012	487.86871	157.42788000000002	236.65204	485.8278	227.28244000000004	271.90401	486.66272	189.89679000000004	306.59937	451.96736	375.15517	225.61261	85.25410999999997	407.53132	228.95227	84.14088999999998	347.97405	283.59282	452.98781	187.29928000000004	204.36866	85.90347999999999	155.38697	211.69735	83.95534999999998	214.57317	189.24742	-0.09277000000002288	373.48534	354.09676	2.6902799999999787	350.84987	346.67529	2.040899999999974	428.86804	372.65043	2.5975099999999762	390.92579	228.11735	3.1541199999999767	377.19608	452.98781	3.4324299999999757	398.53279	169.6733	0.1855399999999885	187.94866	333.87326	2.5047499999999867	215.12978	328.58546	2.2264399999999918	136.92607	353.54015	2.5975099999999895	175.61047	208.636	3.4324299999999885	185.35115	434.06307	3.3396599999999896	170.13714	
